#!OML:ASF H:\Not Pregnant\Project 1\Capture day 1\Session 1\non-pregnant.ASF
:FULLY-SPECIFIED
:DEGREES
3239
root 7.19665 14.5516 30.7638 34.3647 -71.1292 -22.5368
lowerback -1.66075 -1.00944 2.73181
upperback -8.04863 -1.58604 -1.41162
thorax -7.59888 -1.11805 -2.91848
lowerneck 10.5191 -11.0202 -30.3347
upperneck -4.19783 -20.5399 41.156
head 5.65908 -12.0104 19.212
rclavicle 3.97569e-014 1.11319e-014
rhumerus -31.0255 -60.4507 20.2475
rradius 25.1453
rwrist 41.1287
rhand -13.3883 -11.2148
rfingers 7.12502
rthumb 12.7188 -40.8075
lclavicle 3.97569e-014 1.11319e-014
lhumerus -8.75566 28.0382 -2.6187
lradius 30.8329
lwrist 18.5658
lhand -9.69966 -9.56991
lfingers 7.12502
lthumb 16.2729 19.7672
rfemur 8.0683 0.586041 6.31733
rtibia -2.22639e-014
rfoot -15.6861 -6.7529
rtoes -40.6747
lfemur -30.8824 -8.86001 15.2079
ltibia 25.5574
lfoot -28.924 58.8613
ltoes 16.5173
3240
root 7.20413 14.5496 30.7526 34.4975 -71.2452 -22.7506
lowerback -1.57277 -0.958194 2.91459
upperback -8.03346 -1.50199 -1.32226
thorax -7.63053 -1.08423 -2.92988
lowerneck 10.4951 -11.0141 -30.373
upperneck -4.11067 -20.5363 41.0868
head 5.67718 -11.9965 19.1831
rclavicle 4.6118e-014 2.22639e-014
rhumerus -31.1983 -60.5001 20.1561
rradius 25.113
rwrist 41.1325
rhand -13.2167 -11.1921
rfingers 7.12502
rthumb 12.8843 -40.7743
lclavicle 4.6118e-014 2.22639e-014
lhumerus -8.86315 28.111 -2.75467
lradius 30.9107
lwrist 18.6076
lhand -9.72719 -9.57383
lfingers 7.12502
lthumb 16.2463 19.7655
rfemur 8.0556 0.740325 6.34591
rtibia -6.36111e-015
rfoot -15.6624 -6.74905
rtoes -40.6735
lfemur -30.6278 -8.84181 15.2208
ltibia 25.4036
lfoot -31.8836 57.8377
ltoes 19.5985
3241
root 7.21164 14.5475 30.7414 34.6592 -71.3603 -22.9971
lowerback -1.47907 -0.906826 3.10536
upperback -8.01513 -1.41728 -1.23857
thorax -7.66237 -1.05082 -2.95187
lowerneck 10.4756 -11.0065 -30.4087
upperneck -4.03769 -20.5305 41.032
head 5.69224 -11.9838 19.1626
rclavicle -4.47266e-015 1.11319e-014
rhumerus -31.3904 -60.5756 20.0687
rradius 25.0793
rwrist 41.1763
rhand -13.0654 -11.1768
rfingers 7.12502
rthumb 13.0302 -40.7498
lclavicle -4.47266e-015 1.11319e-014
lhumerus -8.97272 28.1631 -2.90141
lradius 30.9901
lwrist 18.6699
lhand -9.75374 -9.58112
lfingers 7.12502
lthumb 16.2208 19.7603
rfemur 8.04196 0.899779 6.38465
rtibia 1.59028e-014
rfoot -15.6292 -6.74863
rtoes -40.692
lfemur -30.3684 -8.81763 15.2432
ltibia 25.252
lfoot -34.5926 56.7277
ltoes 22.519
3242
root 7.21919 14.5454 30.7302 34.8533 -71.4707 -23.2775
lowerback -1.38055 -0.854245 3.30911
upperback -7.99532 -1.33044 -1.16234
thorax -7.69579 -1.01759 -2.98923
lowerneck 10.4648 -10.9997 -30.434
upperneck -3.9839 -20.5241 40.9887
head 5.70102 -11.9732 19.1467
rclavicle 1.74931e-014 1.74931e-014
rhumerus -31.5914 -60.6366 19.9722
rradius 25.0401
rwrist 41.2301
rhand -12.9107 -11.1824
rfingers 7.12502
rthumb 13.1792 -40.7458
lclavicle 1.74931e-014 1.74931e-014
lhumerus -9.06868 28.188 -3.05331
lradius 31.062
lwrist 18.7519
lhand -9.78068 -9.59
lfingers 7.12502
lthumb 16.1948 19.7535
rfemur 8.0261 1.06103 6.43558
rtibia -9.54166e-015
rfoot -15.5864 -6.75115
rtoes -40.7239
lfemur -30.1085 -8.78862 15.2786
ltibia 25.1027
lfoot -37.0637 55.542
ltoes 25.2702
3243
root 7.22673 14.5432 30.7191 35.0625 -71.5812 -23.5696
lowerback -1.28409 -0.801534 3.51238
upperback -7.97326 -1.24341 -1.09157
thorax -7.72547 -0.98442 -3.03234
lowerneck 10.4593 -10.9939 -30.4522
upperneck -3.94847 -20.5162 40.9542
head 5.70398 -11.9635 19.1343
rclavicle 1.2921e-014 3.33958e-014
rhumerus -31.8031 -60.709 19.8764
rradius 24.9962
rwrist 41.3026
rhand -12.8184 -11.1915
rfingers 7.12502
rthumb 13.2682 -40.7492
lclavicle 1.2921e-014 3.33958e-014
lhumerus -9.1629 28.2062 -3.20648
lradius 31.1296
lwrist 18.8307
lhand -9.80467 -9.60448
lfingers 7.12502
lthumb 16.1717 19.7409
rfemur 8.0047 1.22323 6.48917
rtibia 1.59028e-014
rfoot -15.5329 -6.75941
rtoes -40.7787
lfemur -29.8494 -8.7548 15.3174
ltibia 24.9517
lfoot -39.2351 54.3374
ltoes 27.7599
3244
root 7.23443 14.5413 30.7079 35.2721 -71.6897 -23.8571
lowerback -1.18804 -0.749611 3.70889
upperback -7.94909 -1.15741 -1.02368
thorax -7.75234 -0.95137 -3.07483
lowerneck 10.4553 -10.991 -30.47
upperneck -3.92907 -20.5096 40.9263
head 5.70408 -11.9553 19.1244
rclavicle -3.25013e-014 -1.59028e-014
rhumerus -32.0236 -60.7948 19.7843
rradius 24.9503
rwrist 41.3928
rhand -12.7815 -11.2038
rfingers 7.12502
rthumb 13.3038 -40.7591
lclavicle -3.25013e-014 -1.59028e-014
lhumerus -9.25332 28.2153 -3.35422
lradius 31.1876
lwrist 18.9048
lhand -9.83423 -9.62206
lfingers 7.12502
lthumb 16.1433 19.7256
rfemur 7.97789 1.38166 6.54221
rtibia -2.22639e-014
rfoot -15.4697 -6.76883
rtoes -40.8458
lfemur -29.5931 -8.7201 15.358
ltibia 24.7953
lfoot -41.1316 53.136
ltoes 30.077
